# xmcd
#
# Track frame offsets:
#	150
#	19577
#	39315
#	59532
#	85542
#	101622
#	118010
#	138005
#	154842
#	166795
#	188000
#	201760
#
# Disc length: 2858 seconds
# Revision: 0
# Processed by: cddbd v1.5.2PL0 Copyright (c) Steve Scherf et al.
# Submitted via: dBpowerAMP V12.0
#
DISCID=8c0b280c
DTITLE=Various Artist - The essential blues collection
DYEAR=1999
DGENRE=Blues
TTITLE0=Seatsniffers - UFO
TTITLE1=Doug Sahm aka Texas Tornado - Get a life
TTITLE2=Canned Heat Blues Band - Oh baby
TTITLE3=Albert Collins and Barrelhouse - Honey hush
TTITLE4=The Paladins - Ticket home
TTITLE5=Duke Robillard - Don't bother trying to steal her love
TTITLE6=Bobby King, Terry Evans and Ry Cooder - Got to keep moving
TTITLE7=Monti Amundson - In over my head
TTITLE8=Sugar Ray feat. The Bluetones - Fast boogie
TTITLE9=Charles Brown and Bonnie Raitt - Someone to love
TTITLE10=Luther "Guitar Junior" Johnson - Come on back to me
TTITLE11=About Queens of the Blues - Strange things happening every day
EXTD=
EXTT0=
EXTT1=
EXTT2=
EXTT3=
EXTT4=
EXTT5=
EXTT6=
EXTT7=
EXTT8=
EXTT9=
EXTT10=
EXTT11=
PLAYORDER=
